<mxfile host="app.diagrams.net" modified="2024-04-10T04:53:46.755Z" agent="Mozilla/5.0 (Windows NT 10.0; Win64; x64) AppleWebKit/537.36 (KHTML, like Gecko) Chrome/123.0.0.0 Safari/537.36 Edg/123.0.0.0" etag="RwkGpXb4Gz4OA7mZrd5q" version="24.2.3" type="github">
  <diagram name="Page-1" id="fw6PM5_xPEYpLPeXYYaO">
    <mxGraphModel dx="1316" dy="661" grid="1" gridSize="10" guides="1" tooltips="1" connect="1" arrows="1" fold="1" page="1" pageScale="1" pageWidth="850" pageHeight="1100" math="0" shadow="0">
      <root>
        <mxCell id="0" />
        <mxCell id="1" parent="0" />
        <mxCell id="WYNxPbRi-0Zs_udP3dBc-18" style="edgeStyle=orthogonalEdgeStyle;rounded=0;orthogonalLoop=1;jettySize=auto;html=1;entryX=0;entryY=0.5;entryDx=0;entryDy=0;" parent="1" source="WYNxPbRi-0Zs_udP3dBc-4" target="WYNxPbRi-0Zs_udP3dBc-11" edge="1">
          <mxGeometry relative="1" as="geometry" />
        </mxCell>
        <mxCell id="WYNxPbRi-0Zs_udP3dBc-22" style="edgeStyle=orthogonalEdgeStyle;rounded=0;orthogonalLoop=1;jettySize=auto;html=1;entryX=0;entryY=0.5;entryDx=0;entryDy=0;" parent="1" source="WYNxPbRi-0Zs_udP3dBc-4" target="WYNxPbRi-0Zs_udP3dBc-21" edge="1">
          <mxGeometry relative="1" as="geometry" />
        </mxCell>
        <mxCell id="WYNxPbRi-0Zs_udP3dBc-4" value="&lt;font style=&quot;font-size: 18px;&quot;&gt;Circuit board&lt;/font&gt;" style="rounded=1;whiteSpace=wrap;html=1;" parent="1" vertex="1">
          <mxGeometry x="258" y="210" width="155" height="480" as="geometry" />
        </mxCell>
        <mxCell id="WYNxPbRi-0Zs_udP3dBc-8" style="edgeStyle=orthogonalEdgeStyle;rounded=0;orthogonalLoop=1;jettySize=auto;html=1;exitX=1;exitY=0.5;exitDx=0;exitDy=0;entryX=0;entryY=0.5;entryDx=0;entryDy=0;" parent="1" source="WYNxPbRi-0Zs_udP3dBc-5" target="WYNxPbRi-0Zs_udP3dBc-4" edge="1">
          <mxGeometry relative="1" as="geometry">
            <mxPoint x="250" y="415.38461538461524" as="targetPoint" />
          </mxGeometry>
        </mxCell>
        <mxCell id="WYNxPbRi-0Zs_udP3dBc-5" value="Sensors&lt;br&gt;&lt;br&gt;(Moisture,&amp;nbsp;&lt;br&gt;Temperature, humidity)" style="rounded=1;whiteSpace=wrap;html=1;" parent="1" vertex="1">
          <mxGeometry x="40" y="345" width="120" height="210" as="geometry" />
        </mxCell>
        <mxCell id="WYNxPbRi-0Zs_udP3dBc-10" style="edgeStyle=orthogonalEdgeStyle;rounded=0;orthogonalLoop=1;jettySize=auto;html=1;exitX=0.5;exitY=0;exitDx=0;exitDy=0;entryX=0.5;entryY=1;entryDx=0;entryDy=0;" parent="1" source="WYNxPbRi-0Zs_udP3dBc-9" target="WYNxPbRi-0Zs_udP3dBc-4" edge="1">
          <mxGeometry relative="1" as="geometry" />
        </mxCell>
        <mxCell id="WYNxPbRi-0Zs_udP3dBc-9" value="Power Supply" style="rounded=1;whiteSpace=wrap;html=1;" parent="1" vertex="1">
          <mxGeometry x="275.5" y="780" width="120" height="60" as="geometry" />
        </mxCell>
        <mxCell id="WYNxPbRi-0Zs_udP3dBc-17" style="edgeStyle=orthogonalEdgeStyle;rounded=0;orthogonalLoop=1;jettySize=auto;html=1;entryX=0;entryY=0.5;entryDx=0;entryDy=0;" parent="1" source="WYNxPbRi-0Zs_udP3dBc-11" target="WYNxPbRi-0Zs_udP3dBc-12" edge="1">
          <mxGeometry relative="1" as="geometry" />
        </mxCell>
        <mxCell id="WYNxPbRi-0Zs_udP3dBc-11" value="Relay" style="rounded=1;whiteSpace=wrap;html=1;" parent="1" vertex="1">
          <mxGeometry x="470" y="270" width="120" height="60" as="geometry" />
        </mxCell>
        <mxCell id="WYNxPbRi-0Zs_udP3dBc-12" value="Water Pump" style="rounded=1;whiteSpace=wrap;html=1;" parent="1" vertex="1">
          <mxGeometry x="640" y="270" width="120" height="60" as="geometry" />
        </mxCell>
        <mxCell id="WYNxPbRi-0Zs_udP3dBc-29" style="edgeStyle=orthogonalEdgeStyle;rounded=0;orthogonalLoop=1;jettySize=auto;html=1;entryX=0.5;entryY=0;entryDx=0;entryDy=0;shape=link;exitX=1;exitY=0.25;exitDx=0;exitDy=0;" parent="1" source="WYNxPbRi-0Zs_udP3dBc-21" target="WYNxPbRi-0Zs_udP3dBc-27" edge="1">
          <mxGeometry relative="1" as="geometry">
            <mxPoint x="700" y="400" as="sourcePoint" />
          </mxGeometry>
        </mxCell>
        <mxCell id="WYNxPbRi-0Zs_udP3dBc-23" style="edgeStyle=orthogonalEdgeStyle;rounded=0;orthogonalLoop=1;jettySize=auto;html=1;entryX=1;entryY=0.5;entryDx=0;entryDy=0;shape=link;" parent="1" source="WYNxPbRi-0Zs_udP3dBc-21" target="WYNxPbRi-0Zs_udP3dBc-4" edge="1">
          <mxGeometry relative="1" as="geometry" />
        </mxCell>
        <mxCell id="WYNxPbRi-0Zs_udP3dBc-25" style="edgeStyle=orthogonalEdgeStyle;rounded=0;orthogonalLoop=1;jettySize=auto;html=1;entryX=0.5;entryY=0;entryDx=0;entryDy=0;" parent="1" source="WYNxPbRi-0Zs_udP3dBc-21" target="WYNxPbRi-0Zs_udP3dBc-24" edge="1">
          <mxGeometry relative="1" as="geometry" />
        </mxCell>
        <mxCell id="WYNxPbRi-0Zs_udP3dBc-21" value="GSM" style="rounded=1;whiteSpace=wrap;html=1;" parent="1" vertex="1">
          <mxGeometry x="510" y="390" width="120" height="60" as="geometry" />
        </mxCell>
        <mxCell id="WYNxPbRi-0Zs_udP3dBc-26" style="edgeStyle=orthogonalEdgeStyle;rounded=0;orthogonalLoop=1;jettySize=auto;html=1;entryX=0.5;entryY=1;entryDx=0;entryDy=0;shape=link;" parent="1" source="WYNxPbRi-0Zs_udP3dBc-24" target="WYNxPbRi-0Zs_udP3dBc-21" edge="1">
          <mxGeometry relative="1" as="geometry" />
        </mxCell>
        <mxCell id="WYNxPbRi-0Zs_udP3dBc-33" style="edgeStyle=orthogonalEdgeStyle;rounded=0;orthogonalLoop=1;jettySize=auto;html=1;entryX=0;entryY=0.5;entryDx=0;entryDy=0;" parent="1" source="WYNxPbRi-0Zs_udP3dBc-24" target="WYNxPbRi-0Zs_udP3dBc-27" edge="1">
          <mxGeometry relative="1" as="geometry" />
        </mxCell>
        <mxCell id="WYNxPbRi-0Zs_udP3dBc-24" value="Mobile app" style="rounded=1;whiteSpace=wrap;html=1;" parent="1" vertex="1">
          <mxGeometry x="510" y="640" width="120" height="60" as="geometry" />
        </mxCell>
        <mxCell id="WYNxPbRi-0Zs_udP3dBc-32" style="edgeStyle=orthogonalEdgeStyle;rounded=0;orthogonalLoop=1;jettySize=auto;html=1;entryX=1;entryY=0.5;entryDx=0;entryDy=0;" parent="1" source="WYNxPbRi-0Zs_udP3dBc-27" target="WYNxPbRi-0Zs_udP3dBc-24" edge="1">
          <mxGeometry relative="1" as="geometry" />
        </mxCell>
        <mxCell id="WYNxPbRi-0Zs_udP3dBc-27" value="Internet and&amp;nbsp;&lt;br&gt;Cloud Storage" style="rounded=1;whiteSpace=wrap;html=1;" parent="1" vertex="1">
          <mxGeometry x="690" y="520" width="120" height="60" as="geometry" />
        </mxCell>
        <mxCell id="WYNxPbRi-0Zs_udP3dBc-34" value="&lt;font style=&quot;font-size: 36px;&quot;&gt;Agriculture Based IoT&lt;/font&gt;" style="text;html=1;align=center;verticalAlign=middle;resizable=0;points=[];autosize=1;strokeColor=none;fillColor=none;" parent="1" vertex="1">
          <mxGeometry x="240" y="43" width="370" height="60" as="geometry" />
        </mxCell>
      </root>
    </mxGraphModel>
  </diagram>
</mxfile>
